{
  "accessors": [
    {
      "bufferView": 0,
      "byteOffset": 0,
      "componentType": 5125,
      "normalized": false,
      "count": 1152,
      "type": "SCALAR",
      "max": [
        193
      ],
      "min": [
        0
      ]
    },
    {
      "bufferView": 1,
      "byteOffset": 0,
      "componentType": 5126,
      "normalized": false,
      "count": 194,
      "type": "VEC3",
      "max": [
        0.17782199382781982,
        0.17782199382781982,
        59.939998626708984
      ],
      "min": [
        -0.17782199382781982,
        -0.17782199382781982,
        -59.939998626708984
      ]
    },
    {
      "bufferView": 2,
      "byteOffset": 0,
      "componentType": 5125,
      "normalized": false,
      "count": 960,
      "type": "SCALAR",
      "max": [
        159
      ],
      "min": [
        0
      ]
    },
    {
      "bufferView": 3,
      "byteOffset": 0,
      "componentType": 5126,
      "normalized": false,
      "count": 160,
      "type": "VEC3",
      "max": [
        0.22787189483642578,
        0.22787189483642578,
        1.3216769695281982
      ],
      "min": [
        -0.22787189483642578,
        -0.22787189483642578,
        -1.3216769695281982
      ]
    },
    {
      "bufferView": 4,
      "byteOffset": 0,
      "componentType": 5125,
      "normalized": false,
      "count": 960,
      "type": "SCALAR",
      "max": [
        159
      ],
      "min": [
        0
      ]
    },
    {
      "bufferView": 5,
      "byteOffset": 0,
      "componentType": 5126,
      "normalized": false,
      "count": 160,
      "type": "VEC3",
      "max": [
        4.994999885559082,
        4.994999885559082,
        59.939998626708984
      ],
      "min": [
        -4.994999885559082,
        -4.994999885559082,
        0.599399983882904
      ]
    },
    {
      "bufferView": 6,
      "byteOffset": 0,
      "componentType": 5125,
      "normalized": false,
      "count": 960,
      "type": "SCALAR",
      "max": [
        159
      ],
      "min": [
        0
      ]
    },
    {
      "bufferView": 7,
      "byteOffset": 0,
      "componentType": 5126,
      "normalized": false,
      "count": 160,
      "type": "VEC3",
      "max": [
        4.994999885559082,
        4.994999885559082,
        -0.599399983882904
      ],
      "min": [
        -4.994999885559082,
        -4.994999885559082,
        -59.939998626708984
      ]
    },
    {
      "bufferView": 8,
      "byteOffset": 0,
      "componentType": 5125,
      "normalized": false,
      "count": 576,
      "type": "SCALAR",
      "max": [
        95
      ],
      "min": [
        0
      ]
    },
    {
      "bufferView": 9,
      "byteOffset": 0,
      "componentType": 5126,
      "normalized": false,
      "count": 96,
      "type": "VEC3",
      "max": [
        5.99399995803833,
        5.99399995803833,
        59.939998626708984
      ],
      "min": [
        -5.99399995803833,
        -5.99399995803833,
        9.989999771118164
      ]
    },
    {
      "bufferView": 10,
      "byteOffset": 0,
      "componentType": 5125,
      "normalized": false,
      "count": 576,
      "type": "SCALAR",
      "max": [
        95
      ],
      "min": [
        0
      ]
    },
    {
      "bufferView": 11,
      "byteOffset": 0,
      "componentType": 5126,
      "normalized": false,
      "count": 96,
      "type": "VEC3",
      "max": [
        5.99399995803833,
        5.99399995803833,
        -9.989999771118164
      ],
      "min": [
        -5.99399995803833,
        -5.99399995803833,
        -59.939998626708984
      ]
    }
  ],
  "asset": {
    "generator": "pygltflib@v1.16.0",
    "version": "2.0"
  },
  "bufferViews": [
    {
      "buffer": 0,
      "byteOffset": 0,
      "byteLength": 4608,
      "target": 34963
    },
    {
      "buffer": 0,
      "byteOffset": 4608,
      "byteLength": 2328,
      "target": 34962
    },
    {
      "buffer": 1,
      "byteOffset": 0,
      "byteLength": 3840,
      "target": 34963
    },
    {
      "buffer": 1,
      "byteOffset": 3840,
      "byteLength": 1920,
      "target": 34962
    },
    {
      "buffer": 2,
      "byteOffset": 0,
      "byteLength": 3840,
      "target": 34963
    },
    {
      "buffer": 2,
      "byteOffset": 3840,
      "byteLength": 1920,
      "target": 34962
    },
    {
      "buffer": 3,
      "byteOffset": 0,
      "byteLength": 3840,
      "target": 34963
    },
    {
      "buffer": 3,
      "byteOffset": 3840,
      "byteLength": 1920,
      "target": 34962
    },
    {
      "buffer": 4,
      "byteOffset": 0,
      "byteLength": 2304,
      "target": 34963
    },
    {
      "buffer": 4,
      "byteOffset": 2304,
      "byteLength": 1152,
      "target": 34962
    },
    {
      "buffer": 5,
      "byteOffset": 0,
      "byteLength": 2304,
      "target": 34963
    },
    {
      "buffer": 5,
      "byteOffset": 2304,
      "byteLength": 1152,
      "target": 34962
    }
  ],
  "buffers": [
    {
      "uri": "data:application/octet-stream;base64,",
      "byteLength": 6936
    },
    {
      "uri": "data:application/octet-stream;base64,",
      "byteLength": 5760
    },
    {
      "uri": "data:application/octet-stream;base64,",
      "byteLength": 5760
    },
    {
      "uri": "data:application/octet-stream;base64,",
      "byteLength": 5760
    },
    {
      "uri": "data:application/octet-stream;base64,",
      "byteLength": 3456
    },
    {
      "uri": "data:application/octet-stream;base64,",
      "byteLength": 3456
    }
  ],
  "materials": [
    {
      "pbrMetallicRoughness": {
        "baseColorFactor": [
          0.8,
          0.8,
          0.8,
          1.0
        ],
        "metallicFactor": 0.1001253723031621,
        "roughnessFactor": 0.4420304369222652
      },
      "emissiveFactor": [
        0.0,
        0.0,
        0.0
      ],
      "alphaMode": "OPAQUE",
      "alphaCutoff": 0.5,
      "doubleSided": false
    },
    {
      "pbrMetallicRoughness": {
        "baseColorFactor": [
          0.8,
          0.8,
          0.8,
          1.0
        ],
        "metallicFactor": 0.4459881957759121,
        "roughnessFactor": 0.6218331494024026
      },
      "emissiveFactor": [
        0.0,
        0.0,
        0.0
      ],
      "alphaMode": "OPAQUE",
      "alphaCutoff": 0.5,
      "doubleSided": false
    },
    {
      "pbrMetallicRoughness": {
        "baseColorFactor": [
          0.8,
          0.8,
          0.8,
          1.0
        ],
        "metallicFactor": 0.10828764246313871,
        "roughnessFactor": 0.3722526615818821
      },
      "emissiveFactor": [
        0.0,
        0.0,
        0.0
      ],
      "alphaMode": "OPAQUE",
      "alphaCutoff": 0.5,
      "doubleSided": false
    },
    {
      "pbrMetallicRoughness": {
        "baseColorFactor": [
          0.8,
          0.8,
          0.8,
          1.0
        ],
        "metallicFactor": 0.21892343422705418,
        "roughnessFactor": 0.8477519263771769
      },
      "emissiveFactor": [
        0.0,
        0.0,
        0.0
      ],
      "alphaMode": "OPAQUE",
      "alphaCutoff": 0.5,
      "doubleSided": false
    },
    {
      "pbrMetallicRoughness": {
        "baseColorFactor": [
          0.8,
          0.8,
          0.8,
          1.0
        ],
        "metallicFactor": 0.4481077175536321,
        "roughnessFactor": 0.5645666588846274
      },
      "emissiveFactor": [
        0.0,
        0.0,
        0.0
      ],
      "alphaMode": "OPAQUE",
      "alphaCutoff": 0.5,
      "doubleSided": false
    },
    {
      "pbrMetallicRoughness": {
        "baseColorFactor": [
          0.8,
          0.8,
          0.8,
          1.0
        ],
        "metallicFactor": 0.37629858165497654,
        "roughnessFactor": 0.023956672954173586
      },
      "emissiveFactor": [
        0.0,
        0.0,
        0.0
      ],
      "alphaMode": "OPAQUE",
      "alphaCutoff": 0.5,
      "doubleSided": false
    }
  ],
  "meshes": [
    {
      "primitives": [
        {
          "attributes": {
            "POSITION": 1
          },
          "indices": 0,
          "mode": 4,
          "material": 0
        }
      ]
    },
    {
      "primitives": [
        {
          "attributes": {
            "POSITION": 3
          },
          "indices": 2,
          "mode": 4,
          "material": 1
        }
      ]
    },
    {
      "primitives": [
        {
          "attributes": {
            "POSITION": 5
          },
          "indices": 4,
          "mode": 4,
          "material": 2
        }
      ]
    },
    {
      "primitives": [
        {
          "attributes": {
            "POSITION": 7
          },
          "indices": 6,
          "mode": 4,
          "material": 3
        }
      ]
    },
    {
      "primitives": [
        {
          "attributes": {
            "POSITION": 9
          },
          "indices": 8,
          "mode": 4,
          "material": 4
        }
      ]
    },
    {
      "primitives": [
        {
          "attributes": {
            "POSITION": 11
          },
          "indices": 10,
          "mode": 4,
          "material": 5
        }
      ]
    }
  ],
  "nodes": [
    {
      "mesh": 0,
      "rotation": [
        0.0,
        0.0,
        0.0,
        1.0
      ],
      "translation": [
        0.0,
        0.0,
        0.0
      ],
      "name": "BeampipeInner_0"
    },
    {
      "mesh": 1,
      "rotation": [
        0.0,
        0.0,
        0.0,
        1.0
      ],
      "translation": [
        0.0,
        0.0,
        0.0
      ],
      "name": "BeampipeOuter_0"
    },
    {
      "mesh": 2,
      "rotation": [
        0.0,
        0.0,
        0.0,
        1.0
      ],
      "translation": [
        0.0,
        0.0,
        0.0
      ],
      "name": "NozzleW_right_0"
    },
    {
      "mesh": 3,
      "rotation": [
        0.0,
        0.0,
        0.0,
        1.0
      ],
      "translation": [
        0.0,
        0.0,
        0.0
      ],
      "name": "NozzleW_left_0"
    },
    {
      "mesh": 4,
      "rotation": [
        0.0,
        0.0,
        0.0,
        1.0
      ],
      "translation": [
        0.0,
        0.0,
        0.0
      ],
      "name": "NozzleBCH_right_0"
    },
    {
      "mesh": 5,
      "rotation": [
        0.0,
        0.0,
        0.0,
        1.0
      ],
      "translation": [
        0.0,
        0.0,
        0.0
      ],
      "name": "NozzleBCH_left_0"
    }
  ],
  "scene": 0,
  "scenes": [
    {
      "nodes": [
        0,
        1,
        2,
        3,
        4,
        5
      ]
    }
  ]
}