{
  "accessors": [
    {
      "bufferView": 0,
      "byteOffset": 0,
      "componentType": 5125,
      "normalized": false,
      "count": 384,
      "type": "SCALAR",
      "max": [
        63
      ],
      "min": [
        0
      ]
    },
    {
      "bufferView": 1,
      "byteOffset": 0,
      "componentType": 5126,
      "normalized": false,
      "count": 64,
      "type": "VEC3",
      "max": [
        1.7693289518356323,
        1.7693289518356323,
        2.304792881011963
      ],
      "min": [
        -1.7693289518356323,
        -1.7693289518356323,
        -2.304792881011963
      ]
    },
    {
      "bufferView": 2,
      "byteOffset": 0,
      "componentType": 5125,
      "normalized": false,
      "count": 384,
      "type": "SCALAR",
      "max": [
        63
      ],
      "min": [
        0
      ]
    },
    {
      "bufferView": 3,
      "byteOffset": 0,
      "componentType": 5126,
      "normalized": false,
      "count": 64,
      "type": "VEC3",
      "max": [
        1.49698805809021,
        1.49698805809021,
        2.2976725101470947
      ],
      "min": [
        -1.49698805809021,
        -1.49698805809021,
        -2.2976725101470947
      ]
    },
    {
      "bufferView": 4,
      "byteOffset": 0,
      "componentType": 5125,
      "normalized": false,
      "count": 384,
      "type": "SCALAR",
      "max": [
        63
      ],
      "min": [
        0
      ]
    },
    {
      "bufferView": 5,
      "byteOffset": 0,
      "componentType": 5126,
      "normalized": false,
      "count": 64,
      "type": "VEC3",
      "max": [
        1.6289081573486328,
        1.6289081573486328,
        2.264904022216797
      ],
      "min": [
        -1.6289081573486328,
        -1.6289081573486328,
        -2.264904022216797
      ]
    },
    {
      "bufferView": 6,
      "byteOffset": 0,
      "componentType": 5125,
      "normalized": false,
      "count": 384,
      "type": "SCALAR",
      "max": [
        63
      ],
      "min": [
        0
      ]
    },
    {
      "bufferView": 7,
      "byteOffset": 0,
      "componentType": 5126,
      "normalized": false,
      "count": 64,
      "type": "VEC3",
      "max": [
        1.7638163566589355,
        1.7638163566589355,
        2.2976725101470947
      ],
      "min": [
        -1.7638163566589355,
        -1.7638163566589355,
        -2.2976725101470947
      ]
    },
    {
      "bufferView": 8,
      "byteOffset": 0,
      "componentType": 5125,
      "normalized": false,
      "count": 384,
      "type": "SCALAR",
      "max": [
        63
      ],
      "min": [
        0
      ]
    },
    {
      "bufferView": 9,
      "byteOffset": 0,
      "componentType": 5126,
      "normalized": false,
      "count": 64,
      "type": "VEC3",
      "max": [
        1.7608283758163452,
        1.7608283758163452,
        0.0014939999673515558
      ],
      "min": [
        -1.7608283758163452,
        -1.7608283758163452,
        -0.0014939999673515558
      ]
    }
  ],
  "asset": {
    "generator": "pygltflib@v1.16.0",
    "version": "2.0"
  },
  "bufferViews": [
    {
      "buffer": 0,
      "byteOffset": 0,
      "byteLength": 1536,
      "target": 34963
    },
    {
      "buffer": 0,
      "byteOffset": 1536,
      "byteLength": 768,
      "target": 34962
    },
    {
      "buffer": 1,
      "byteOffset": 0,
      "byteLength": 1536,
      "target": 34963
    },
    {
      "buffer": 1,
      "byteOffset": 1536,
      "byteLength": 768,
      "target": 34962
    },
    {
      "buffer": 2,
      "byteOffset": 0,
      "byteLength": 1536,
      "target": 34963
    },
    {
      "buffer": 2,
      "byteOffset": 1536,
      "byteLength": 768,
      "target": 34962
    },
    {
      "buffer": 3,
      "byteOffset": 0,
      "byteLength": 1536,
      "target": 34963
    },
    {
      "buffer": 3,
      "byteOffset": 1536,
      "byteLength": 768,
      "target": 34962
    },
    {
      "buffer": 4,
      "byteOffset": 0,
      "byteLength": 1536,
      "target": 34963
    },
    {
      "buffer": 4,
      "byteOffset": 1536,
      "byteLength": 768,
      "target": 34962
    }
  ],
  "buffers": [
    {
      "uri": "data:application/octet-stream;base64,",
      "byteLength": 2304
    },
    {
      "uri": "data:application/octet-stream;base64,",
      "byteLength": 2304
    },
    {
      "uri": "data:application/octet-stream;base64,",
      "byteLength": 2304
    },
    {
      "uri": "data:application/octet-stream;base64,",
      "byteLength": 2304
    },
    {
      "uri": "data:application/octet-stream;base64,",
      "byteLength": 2304
    }
  ],
  "materials": [
    {
      "pbrMetallicRoughness": {
        "baseColorFactor": [
          0.4980392156862745,
          0.4980392156862745,
          0.4980392156862745,
          1.0
        ],
        "metallicFactor": 0.11800092702614698,
        "roughnessFactor": 0.5678775061832865
      },
      "emissiveFactor": [
        0.0,
        0.0,
        0.0
      ],
      "alphaMode": "OPAQUE",
      "alphaCutoff": 0.5,
      "doubleSided": false
    },
    {
      "pbrMetallicRoughness": {
        "baseColorFactor": [
          0.4980392156862745,
          0.4980392156862745,
          0.4980392156862745,
          1.0
        ],
        "metallicFactor": 0.13176861309104887,
        "roughnessFactor": 0.5487917813822403
      },
      "emissiveFactor": [
        0.0,
        0.0,
        0.0
      ],
      "alphaMode": "OPAQUE",
      "alphaCutoff": 0.5,
      "doubleSided": false
    },
    {
      "pbrMetallicRoughness": {
        "baseColorFactor": [
          0.4980392156862745,
          0.4980392156862745,
          0.4980392156862745,
          1.0
        ],
        "metallicFactor": 0.17792277334046333,
        "roughnessFactor": 0.5366703817833062
      },
      "emissiveFactor": [
        0.0,
        0.0,
        0.0
      ],
      "alphaMode": "OPAQUE",
      "alphaCutoff": 0.5,
      "doubleSided": false
    },
    {
      "pbrMetallicRoughness": {
        "baseColorFactor": [
          0.4980392156862745,
          0.4980392156862745,
          0.4980392156862745,
          1.0
        ],
        "metallicFactor": 0.0337339679473474,
        "roughnessFactor": 0.5907150581325429
      },
      "emissiveFactor": [
        0.0,
        0.0,
        0.0
      ],
      "alphaMode": "OPAQUE",
      "alphaCutoff": 0.5,
      "doubleSided": false
    },
    {
      "pbrMetallicRoughness": {
        "baseColorFactor": [
          0.4980392156862745,
          0.4980392156862745,
          0.4980392156862745,
          1.0
        ],
        "metallicFactor": 0.1812586267912362,
        "roughnessFactor": 0.5965253232756695
      },
      "emissiveFactor": [
        0.0,
        0.0,
        0.0
      ],
      "alphaMode": "OPAQUE",
      "alphaCutoff": 0.5,
      "doubleSided": false
    }
  ],
  "meshes": [
    {
      "primitives": [
        {
          "attributes": {
            "POSITION": 1
          },
          "indices": 0,
          "mode": 4,
          "material": 0
        }
      ]
    },
    {
      "primitives": [
        {
          "attributes": {
            "POSITION": 3
          },
          "indices": 2,
          "mode": 4,
          "material": 1
        }
      ]
    },
    {
      "primitives": [
        {
          "attributes": {
            "POSITION": 5
          },
          "indices": 4,
          "mode": 4,
          "material": 2
        }
      ]
    },
    {
      "primitives": [
        {
          "attributes": {
            "POSITION": 7
          },
          "indices": 6,
          "mode": 4,
          "material": 3
        }
      ]
    },
    {
      "primitives": [
        {
          "attributes": {
            "POSITION": 9
          },
          "indices": 8,
          "mode": 4,
          "material": 4
        }
      ]
    }
  ],
  "nodes": [
    {
      "mesh": 0,
      "rotation": [
        0.0,
        0.0,
        0.0,
        1.0
      ],
      "translation": [
        0.0,
        0.0,
        0.0
      ],
      "name": "Solenoid_0"
    },
    {
      "mesh": 1,
      "rotation": [
        0.0,
        0.0,
        0.0,
        1.0
      ],
      "translation": [
        0.0,
        0.0,
        0.0
      ],
      "name": "SolenoidBarrel_layer0_slice0_0"
    },
    {
      "mesh": 2,
      "rotation": [
        0.0,
        0.0,
        0.0,
        1.0
      ],
      "translation": [
        0.0,
        0.0,
        0.0
      ],
      "name": "SolenoidBarrel_layer1_slice0_0"
    },
    {
      "mesh": 3,
      "rotation": [
        0.0,
        0.0,
        0.0,
        1.0
      ],
      "translation": [
        0.0,
        0.0,
        0.0
      ],
      "name": "SolenoidBarrel_layer2_slice0_0"
    },
    {
      "mesh": 4,
      "rotation": [
        0.0,
        0.0,
        0.0,
        1.0
      ],
      "translation": [
        0.0,
        0.0,
        2.30465
      ],
      "name": "SolenoidEndcaps_layer0_slice0_0"
    },
    {
      "mesh": 4,
      "rotation": [
        6.123233995736767e-17,
        1.0,
        6.123233995736766e-17,
        6.123233995736766e-17
      ],
      "translation": [
        0.0,
        0.0,
        -2.30465
      ],
      "name": "SolenoidEndcaps_layer0_slice0_1"
    }
  ],
  "scene": 0,
  "scenes": [
    {
      "nodes": [
        0,
        1,
        2,
        3,
        4,
        5
      ]
    }
  ]
}