{
    "asset" : {
        "generator" : "Khronos glTF Blender I/O v1.6.16",
        "version" : "2.0"
    },
    "scene" : 0,
    "scenes" : [
        {
            "name" : "Scene",
            "nodes" : [
                0,
                1
            ]
        }
    ],
    "nodes" : [
        {
            "mesh" : 0,
            "name" : "BeampipeInner_0"
        },
        {
            "mesh" : 1,
            "name" : "NozzleW_right_0"
        }
    ],
    "materials" : [
        {
            "name" : "Material_0.010",
            "pbrMetallicRoughness" : {
                "baseColorFactor" : [
                    0.49803921580314636,
                    0.49803921580314636,
                    0.49803921580314636,
                    1
                ],
                "metallicFactor" : 0.0313318707048893,
                "roughnessFactor" : 0.5418310165405273
            }
        },
        {
            "name" : "Material_0.013",
            "pbrMetallicRoughness" : {
                "baseColorFactor" : [
                    0.49803921580314636,
                    0.49803921580314636,
                    0.49803921580314636,
                    1
                ],
                "metallicFactor" : 0.0313318707048893,
                "roughnessFactor" : 0.5418310165405273
            }
        },
        {
            "name" : "Material_0.014",
            "pbrMetallicRoughness" : {
                "baseColorFactor" : [
                    0.05882352963089943,
                    0.18431372940540314,
                    0.18431372940540314,
                    1
                ],
                "metallicFactor" : 0.16663208603858948,
                "roughnessFactor" : 0.5170994997024536
            }
        },
        {
            "name" : "Material_1.012",
            "pbrMetallicRoughness" : {
                "baseColorFactor" : [
                    0.05882352963089943,
                    0.18431372940540314,
                    0.18431372940540314,
                    1
                ],
                "metallicFactor" : 0.03308412805199623,
                "roughnessFactor" : 0.5302539467811584
            }
        },
        {
            "name" : "Material_2.012",
            "pbrMetallicRoughness" : {
                "baseColorFactor" : [
                    0.05882352963089943,
                    0.18431372940540314,
                    0.18431372940540314,
                    1
                ],
                "metallicFactor" : 0.12091349810361862,
                "roughnessFactor" : 0.5386630296707153
            }
        },
        {
            "name" : "Material_3.009",
            "pbrMetallicRoughness" : {
                "baseColorFactor" : [
                    0.05882352963089943,
                    0.18431372940540314,
                    0.18431372940540314,
                    1
                ],
                "metallicFactor" : 0.05906173586845398,
                "roughnessFactor" : 0.5140448212623596
            }
        }
    ],
    "meshes" : [
        {
            "name" : "Mesh_0",
            "primitives" : [
                {
                    "attributes" : {
                        "POSITION" : 0,
                        "NORMAL" : 1,
                        "TEXCOORD_0" : 2
                    },
                    "indices" : 3,
                    "material" : 0
                },
                {
                    "attributes" : {
                        "POSITION" : 4,
                        "NORMAL" : 5,
                        "TEXCOORD_0" : 6
                    },
                    "indices" : 7,
                    "material" : 1
                }
            ]
        },
        {
            "name" : "Mesh_0.002",
            "primitives" : [
                {
                    "attributes" : {
                        "POSITION" : 8,
                        "NORMAL" : 9
                    },
                    "indices" : 10,
                    "material" : 2
                },
                {
                    "attributes" : {
                        "POSITION" : 11,
                        "NORMAL" : 12
                    },
                    "indices" : 13,
                    "material" : 3
                },
                {
                    "attributes" : {
                        "POSITION" : 14,
                        "NORMAL" : 15
                    },
                    "indices" : 16,
                    "material" : 4
                },
                {
                    "attributes" : {
                        "POSITION" : 17,
                        "NORMAL" : 18
                    },
                    "indices" : 19,
                    "material" : 5
                }
            ]
        }
    ],
    "accessors" : [
        {
            "bufferView" : 0,
            "componentType" : 5126,
            "count" : 1126,
            "max" : [
                0.017782200127840042,
                0.017782200127840042,
                5.99399995803833
            ],
            "min" : [
                -0.017782200127840042,
                -0.017782200127840042,
                -5.99399995803833
            ],
            "type" : "VEC3"
        },
        {
            "bufferView" : 1,
            "componentType" : 5126,
            "count" : 1126,
            "type" : "VEC3"
        },
        {
            "bufferView" : 2,
            "componentType" : 5126,
            "count" : 1126,
            "type" : "VEC2"
        },
        {
            "bufferView" : 3,
            "componentType" : 5123,
            "count" : 1152,
            "type" : "SCALAR"
        },
        {
            "bufferView" : 4,
            "componentType" : 5126,
            "count" : 1129,
            "max" : [
                0.017782200127840042,
                0.017782200127840042,
                11.98799991607666
            ],
            "min" : [
                -0.017782200127840042,
                -0.017782200127840042,
                -11.98799991607666
            ],
            "type" : "VEC3"
        },
        {
            "bufferView" : 5,
            "componentType" : 5126,
            "count" : 1129,
            "type" : "VEC3"
        },
        {
            "bufferView" : 6,
            "componentType" : 5126,
            "count" : 1129,
            "type" : "VEC2"
        },
        {
            "bufferView" : 7,
            "componentType" : 5123,
            "count" : 1152,
            "type" : "SCALAR"
        },
        {
            "bufferView" : 8,
            "componentType" : 5126,
            "count" : 802,
            "max" : [
                0.49950000643730164,
                0.49950000643730164,
                5.99399995803833
            ],
            "min" : [
                -0.49950000643730164,
                -0.49950000643730164,
                0.059939999133348465
            ],
            "type" : "VEC3"
        },
        {
            "bufferView" : 9,
            "componentType" : 5126,
            "count" : 802,
            "type" : "VEC3"
        },
        {
            "bufferView" : 10,
            "componentType" : 5123,
            "count" : 960,
            "type" : "SCALAR"
        },
        {
            "bufferView" : 11,
            "componentType" : 5126,
            "count" : 795,
            "max" : [
                0.49950000643730164,
                0.49950000643730164,
                -0.059939999133348465
            ],
            "min" : [
                -0.49950000643730164,
                -0.49950000643730164,
                -5.99399995803833
            ],
            "type" : "VEC3"
        },
        {
            "bufferView" : 12,
            "componentType" : 5126,
            "count" : 795,
            "type" : "VEC3"
        },
        {
            "bufferView" : 13,
            "componentType" : 5123,
            "count" : 960,
            "type" : "SCALAR"
        },
        {
            "bufferView" : 14,
            "componentType" : 5126,
            "count" : 470,
            "max" : [
                0.599399983882904,
                0.599399983882904,
                5.99399995803833
            ],
            "min" : [
                -0.599399983882904,
                -0.599399983882904,
                0.9990000128746033
            ],
            "type" : "VEC3"
        },
        {
            "bufferView" : 15,
            "componentType" : 5126,
            "count" : 470,
            "type" : "VEC3"
        },
        {
            "bufferView" : 16,
            "componentType" : 5123,
            "count" : 576,
            "type" : "SCALAR"
        },
        {
            "bufferView" : 17,
            "componentType" : 5126,
            "count" : 470,
            "max" : [
                0.599399983882904,
                0.599399983882904,
                -0.9990000128746033
            ],
            "min" : [
                -0.599399983882904,
                -0.599399983882904,
                -5.99399995803833
            ],
            "type" : "VEC3"
        },
        {
            "bufferView" : 18,
            "componentType" : 5126,
            "count" : 470,
            "type" : "VEC3"
        },
        {
            "bufferView" : 19,
            "componentType" : 5123,
            "count" : 576,
            "type" : "SCALAR"
        }
    ],
    "bufferViews" : [
        {
            "buffer" : 0,
            "byteLength" : 13512,
            "byteOffset" : 0
        },
        {
            "buffer" : 0,
            "byteLength" : 13512,
            "byteOffset" : 13512
        },
        {
            "buffer" : 0,
            "byteLength" : 9008,
            "byteOffset" : 27024
        },
        {
            "buffer" : 0,
            "byteLength" : 2304,
            "byteOffset" : 36032
        },
        {
            "buffer" : 0,
            "byteLength" : 13548,
            "byteOffset" : 38336
        },
        {
            "buffer" : 0,
            "byteLength" : 13548,
            "byteOffset" : 51884
        },
        {
            "buffer" : 0,
            "byteLength" : 9032,
            "byteOffset" : 65432
        },
        {
            "buffer" : 0,
            "byteLength" : 2304,
            "byteOffset" : 74464
        },
        {
            "buffer" : 0,
            "byteLength" : 9624,
            "byteOffset" : 76768
        },
        {
            "buffer" : 0,
            "byteLength" : 9624,
            "byteOffset" : 86392
        },
        {
            "buffer" : 0,
            "byteLength" : 1920,
            "byteOffset" : 96016
        },
        {
            "buffer" : 0,
            "byteLength" : 9540,
            "byteOffset" : 97936
        },
        {
            "buffer" : 0,
            "byteLength" : 9540,
            "byteOffset" : 107476
        },
        {
            "buffer" : 0,
            "byteLength" : 1920,
            "byteOffset" : 117016
        },
        {
            "buffer" : 0,
            "byteLength" : 5640,
            "byteOffset" : 118936
        },
        {
            "buffer" : 0,
            "byteLength" : 5640,
            "byteOffset" : 124576
        },
        {
            "buffer" : 0,
            "byteLength" : 1152,
            "byteOffset" : 130216
        },
        {
            "buffer" : 0,
            "byteLength" : 5640,
            "byteOffset" : 131368
        },
        {
            "buffer" : 0,
            "byteLength" : 5640,
            "byteOffset" : 137008
        },
        {
            "buffer" : 0,
            "byteLength" : 1152,
            "byteOffset" : 142648
        }
    ],
    "buffers" : [
        {
            "byteLength" : 143800,
            "uri" : "data:application/octet-stream;base64,"
        }
    ]
}
